<svg id="svg" version="1.1" xmlns="http://www.w3.org/2000/svg" xmlns:xlink="http://www.w3.org/1999/xlink" width="400" height="63.73106060606061" viewBox="0, 0, 400,63.73106060606061"><g id="svgg"><path id="path0" d="M0.000 0.266 C 0.000 0.413,0.104 0.769,0.230 1.058 C 0.357 1.347,0.552 1.846,0.664 2.167 C 0.776 2.487,0.934 2.900,1.016 3.083 C 1.098 3.267,1.610 4.654,2.154 6.167 C 2.697 7.679,3.340 9.442,3.583 10.083 C 3.825 10.725,4.101 11.475,4.195 11.750 C 4.289 12.025,4.461 12.475,4.577 12.750 C 4.693 13.025,4.999 13.850,5.256 14.583 C 5.513 15.317,5.775 15.992,5.838 16.083 C 5.902 16.175,6.008 16.475,6.074 16.750 C 6.183 17.207,6.911 19.196,7.415 20.417 C 7.529 20.692,7.832 21.517,8.089 22.250 C 8.346 22.983,8.608 23.658,8.672 23.750 C 8.735 23.842,8.841 24.142,8.907 24.417 C 8.972 24.692,9.127 25.142,9.251 25.417 C 9.476 25.916,10.292 28.121,11.010 30.167 C 11.219 30.762,11.442 31.325,11.505 31.417 C 11.569 31.508,11.674 31.806,11.739 32.078 C 11.804 32.349,11.997 32.877,12.167 33.250 C 12.337 33.623,12.529 34.151,12.594 34.422 C 12.659 34.694,12.768 34.992,12.835 35.083 C 12.902 35.175,13.048 35.550,13.159 35.917 C 13.271 36.283,13.468 36.820,13.598 37.109 C 13.727 37.397,13.833 37.686,13.833 37.750 C 13.833 37.814,13.939 38.103,14.068 38.391 C 14.196 38.680,14.454 39.367,14.641 39.917 C 15.213 41.603,15.502 42.402,15.667 42.750 C 15.753 42.933,15.928 43.383,16.055 43.750 C 16.182 44.117,16.679 45.467,17.160 46.750 C 17.641 48.033,18.073 49.252,18.120 49.458 C 18.167 49.665,18.291 49.832,18.394 49.831 C 18.498 49.830,19.858 49.754,21.417 49.662 C 24.324 49.491,29.892 49.682,30.917 49.988 C 31.711 50.225,32.833 50.350,32.833 50.202 C 32.833 49.945,28.460 47.851,27.167 47.488 C 26.754 47.372,26.345 47.215,26.258 47.139 C 26.171 47.062,25.969 47.000,25.810 47.000 C 25.157 47.000,25.256 46.772,26.662 45.055 C 26.970 44.679,28.961 41.726,29.234 41.240 C 29.386 40.971,29.652 40.525,29.825 40.250 C 30.162 39.715,32.000 36.037,32.000 35.898 C 32.000 35.852,32.143 35.500,32.318 35.116 C 32.662 34.360,33.995 30.322,34.391 28.833 C 35.737 23.784,36.229 18.709,36.126 10.934 C 36.044 4.785,35.938 5.100,37.138 7.917 C 40.644 16.152,42.482 30.083,41.327 39.667 C 40.852 43.604,40.341 46.598,39.913 47.958 C 39.846 48.169,39.865 48.333,39.954 48.333 C 40.123 48.333,41.544 45.547,41.740 44.833 C 41.803 44.604,41.920 44.267,42.001 44.083 C 43.518 40.648,44.583 28.987,43.950 22.771 C 43.794 21.249,43.899 21.266,44.830 22.917 C 45.141 23.467,45.437 23.954,45.489 24.000 C 45.648 24.141,47.167 27.389,47.167 27.589 C 47.167 27.650,47.274 27.936,47.406 28.225 C 47.994 29.515,49.034 33.424,49.325 35.436 C 49.430 36.159,49.587 37.156,49.674 37.653 C 50.101 40.074,49.658 47.685,48.989 49.446 C 48.903 49.671,48.833 49.925,48.833 50.011 C 48.833 50.104,50.827 50.166,53.792 50.166 L 58.750 50.165 59.728 47.374 C 60.266 45.839,60.800 44.358,60.914 44.083 C 61.028 43.808,61.328 42.983,61.581 42.250 C 61.833 41.517,62.133 40.692,62.248 40.417 C 62.362 40.142,62.811 38.904,63.245 37.667 C 63.680 36.429,64.100 35.267,64.180 35.083 C 64.260 34.900,64.445 34.375,64.591 33.917 C 64.737 33.458,64.963 32.847,65.095 32.558 C 65.226 32.269,65.334 31.932,65.334 31.808 C 65.335 31.684,65.439 31.384,65.566 31.141 C 65.693 30.898,65.887 30.410,65.996 30.058 C 66.106 29.705,66.296 29.192,66.418 28.917 C 66.541 28.642,66.695 28.192,66.760 27.917 C 66.826 27.642,66.936 27.342,67.006 27.250 C 67.075 27.158,67.211 26.821,67.308 26.500 C 67.564 25.648,68.237 23.777,68.357 23.583 C 68.413 23.492,68.588 22.967,68.745 22.417 C 68.903 21.867,69.086 21.342,69.152 21.250 C 69.219 21.158,69.378 20.746,69.506 20.333 C 69.634 19.921,69.835 19.396,69.952 19.167 C 70.069 18.938,70.165 18.649,70.166 18.525 C 70.166 18.402,70.273 18.064,70.402 17.775 C 70.532 17.486,70.729 16.950,70.841 16.583 C 70.952 16.217,71.099 15.842,71.167 15.750 C 71.234 15.658,71.380 15.283,71.490 14.917 C 71.600 14.550,71.758 14.100,71.840 13.917 C 72.016 13.529,72.381 12.496,72.842 11.083 C 73.021 10.533,73.239 9.933,73.326 9.750 C 73.413 9.567,73.758 8.629,74.094 7.667 C 74.856 5.483,75.151 4.653,75.278 4.333 C 75.332 4.196,75.659 3.296,76.004 2.333 C 76.348 1.371,76.684 0.452,76.750 0.292 C 76.862 0.016,76.431 0.000,69.049 0.000 L 61.228 0.000 60.690 1.625 C 60.394 2.519,60.087 3.400,60.009 3.583 C 59.930 3.767,58.077 8.878,55.891 14.943 C 52.081 25.513,51.500 26.897,51.500 25.404 C 51.500 25.184,50.591 22.219,50.329 21.583 C 50.253 21.400,49.805 20.012,49.333 18.500 C 48.862 16.987,48.412 15.600,48.333 15.417 C 48.255 15.233,47.915 14.183,47.577 13.083 C 47.240 11.983,46.607 9.996,46.171 8.667 C 44.171 2.568,43.500 0.451,43.500 0.234 C 43.500 0.038,42.675 0.000,38.447 0.000 L 33.394 0.000 32.705 2.125 C 32.326 3.294,31.965 4.475,31.902 4.750 C 31.839 5.025,31.733 5.325,31.667 5.417 C 31.600 5.508,31.494 5.808,31.431 6.083 C 31.368 6.358,31.019 7.521,30.654 8.667 C 30.290 9.813,29.852 11.200,29.681 11.750 C 28.551 15.382,27.779 17.841,27.586 18.417 C 27.464 18.783,27.124 19.871,26.832 20.833 C 26.540 21.796,26.133 23.108,25.926 23.750 C 25.720 24.392,25.448 25.273,25.323 25.708 L 25.094 26.500 24.295 24.291 C 23.855 23.077,23.426 21.933,23.343 21.750 C 23.259 21.567,23.101 21.117,22.992 20.750 C 22.883 20.383,22.699 19.858,22.584 19.583 C 22.468 19.308,22.015 18.071,21.578 16.833 C 21.140 15.596,20.708 14.396,20.619 14.167 C 20.419 13.658,18.700 8.893,17.432 5.333 C 17.285 4.921,17.096 4.433,17.012 4.250 C 16.928 4.067,16.746 3.579,16.606 3.167 C 16.195 1.952,15.829 0.949,15.617 0.458 L 15.419 -0.000 7.709 -0.000 C 0.756 -0.000,0.000 0.026,0.000 0.266 M93.667 0.167 C 89.072 0.757,85.268 2.494,82.199 5.403 C 81.347 6.211,79.667 8.356,79.667 8.637 C 79.667 8.745,79.607 8.833,79.534 8.833 C 79.362 8.833,78.112 11.307,77.658 12.548 C 76.599 15.441,76.348 17.812,76.349 24.917 C 76.350 31.004,76.406 31.970,76.902 34.500 C 77.748 38.812,80.410 43.259,83.599 45.687 C 86.494 47.891,89.892 49.236,93.654 49.667 C 94.510 49.765,102.886 49.831,114.542 49.832 L 134.000 49.833 134.000 44.583 L 134.000 39.333 116.125 39.332 C 104.962 39.331,97.863 39.268,97.219 39.163 C 93.492 38.559,91.167 35.386,91.167 30.906 L 91.167 29.500 111.833 29.500 L 132.500 29.500 132.500 24.417 L 132.500 19.333 111.833 19.333 L 91.167 19.333 91.167 17.788 C 91.167 14.896,92.728 11.667,94.127 11.667 C 94.225 11.667,94.331 11.603,94.361 11.525 C 94.392 11.447,94.942 11.204,95.583 10.983 L 96.750 10.583 115.375 10.537 L 134.000 10.490 134.000 5.245 L 134.000 0.000 114.292 0.025 C 103.452 0.038,94.171 0.102,93.667 0.167 M66.917 52.076 C 66.412 52.313,64.883 52.900,63.500 53.387 C 56.698 55.780,47.569 55.934,36.833 53.834 C 27.083 51.927,19.448 52.154,13.209 54.535 C 11.371 55.236,11.386 55.475,13.243 55.082 C 15.191 54.669,18.729 54.448,21.583 54.561 C 25.310 54.707,27.460 55.073,34.000 56.674 C 40.283 58.212,46.773 58.865,51.394 58.426 C 55.197 58.065,55.785 57.950,58.500 57.039 C 60.071 56.512,62.885 55.282,63.167 55.000 C 63.212 54.954,63.475 54.804,63.750 54.667 C 64.025 54.530,64.737 54.087,65.333 53.681 C 65.929 53.275,66.657 52.787,66.951 52.597 C 67.245 52.406,67.489 52.156,67.493 52.042 C 67.501 51.789,67.530 51.788,66.917 52.076 M20.083 57.668 C 16.410 58.131,14.738 58.512,12.958 59.291 C 11.925 59.743,12.196 59.787,15.542 59.708 C 18.454 59.639,24.985 60.089,25.872 60.420 C 25.988 60.464,26.871 60.648,27.833 60.830 C 29.591 61.162,31.962 61.678,34.750 62.336 C 36.431 62.733,39.157 63.244,40.917 63.492 C 42.336 63.692,48.595 63.697,49.750 63.500 C 51.432 63.211,53.254 62.802,53.416 62.676 C 53.508 62.604,53.793 62.496,54.049 62.435 C 55.405 62.111,58.098 60.616,59.905 59.185 C 61.187 58.170,61.161 57.975,59.814 58.510 C 52.712 61.328,47.087 61.586,38.083 59.506 C 31.439 57.971,23.837 57.195,20.083 57.668 " stroke="none" fill="#4a90b8" fill-rule="evenodd"></path><path id="path1" d="M141.167 11.639 C 141.167 18.041,141.217 29.253,141.277 36.556 L 141.388 49.833 164.986 49.832 C 190.923 49.830,191.809 49.796,194.417 48.672 C 197.609 47.296,198.917 46.430,200.689 44.522 C 206.186 38.600,204.967 29.007,198.212 25.028 C 197.016 24.324,196.999 24.286,197.659 23.731 C 205.771 16.905,200.852 3.118,189.395 0.570 C 187.057 0.050,185.446 0.014,163.542 0.007 L 141.167 0.000 141.167 11.639 M229.250 0.182 C 226.887 0.445,223.241 1.216,222.250 1.662 C 222.067 1.745,221.729 1.863,221.500 1.926 C 220.703 2.142,217.734 3.617,216.828 4.246 C 212.018 7.586,209.382 11.761,208.408 17.583 C 208.093 19.463,208.095 30.586,208.410 32.333 C 210.240 42.482,217.597 48.551,229.417 49.661 C 231.808 49.885,250.031 49.885,252.417 49.660 C 256.709 49.256,263.755 47.075,264.660 45.870 C 264.710 45.804,265.190 45.453,265.728 45.091 C 270.204 42.076,273.152 36.588,273.672 30.305 C 275.102 13.010,270.534 4.778,257.417 1.010 C 254.519 0.178,253.515 0.118,241.750 0.075 C 235.608 0.052,229.983 0.101,229.250 0.182 M302.000 0.168 C 300.049 0.384,297.284 1.179,296.500 1.749 C 296.362 1.849,296.032 2.040,295.765 2.174 C 293.807 3.154,291.498 6.571,289.124 12.000 C 288.983 12.321,288.711 12.940,288.518 13.375 C 288.325 13.810,288.009 14.523,287.816 14.958 C 287.177 16.399,287.030 16.739,286.500 18.000 C 286.211 18.688,285.830 19.568,285.654 19.957 C 285.478 20.345,285.333 20.705,285.333 20.757 C 285.333 20.809,285.175 21.204,284.982 21.634 C 284.789 22.065,284.531 22.642,284.409 22.917 C 284.287 23.192,283.803 24.354,283.333 25.500 C 282.864 26.646,282.378 27.808,282.254 28.083 C 282.129 28.358,281.792 29.183,281.505 29.917 C 281.219 30.650,280.884 31.475,280.762 31.750 C 280.640 32.025,280.339 32.775,280.092 33.417 C 279.845 34.058,279.542 34.808,279.419 35.083 C 279.296 35.358,278.657 36.933,278.001 38.583 C 277.344 40.233,276.708 41.808,276.589 42.083 C 276.469 42.358,276.315 42.771,276.248 43.000 C 276.181 43.229,276.070 43.492,276.001 43.583 C 275.933 43.675,275.782 44.050,275.667 44.417 C 275.551 44.783,275.401 45.158,275.332 45.250 C 275.264 45.342,275.152 45.604,275.085 45.833 C 275.018 46.063,274.864 46.475,274.743 46.750 C 274.282 47.798,273.667 49.451,273.667 49.640 C 273.667 49.789,275.567 49.826,281.519 49.793 L 289.370 49.750 289.745 48.750 C 289.951 48.200,290.358 47.112,290.649 46.333 C 290.941 45.554,291.289 44.680,291.423 44.391 C 291.557 44.103,291.667 43.814,291.667 43.750 C 291.667 43.686,291.775 43.397,291.907 43.109 C 292.039 42.820,292.567 41.496,293.081 40.167 C 295.237 34.590,296.034 32.555,296.249 32.083 C 296.461 31.617,297.099 30.031,297.858 28.083 C 298.037 27.625,298.292 27.014,298.425 26.725 C 298.558 26.436,298.667 26.151,298.667 26.091 C 298.667 26.031,298.809 25.667,298.983 25.283 C 299.157 24.898,299.497 24.096,299.740 23.500 C 299.983 22.904,300.250 22.267,300.333 22.083 C 300.417 21.900,300.684 21.262,300.926 20.667 C 301.169 20.071,301.547 19.187,301.767 18.703 C 301.987 18.219,302.167 17.783,302.167 17.734 C 302.167 17.685,302.358 17.219,302.591 16.698 C 304.448 12.557,305.818 11.667,310.333 11.667 C 315.379 11.667,316.297 12.454,319.085 19.167 C 319.332 19.762,319.677 20.565,319.851 20.949 C 320.024 21.334,320.167 21.697,320.167 21.757 C 320.167 21.817,320.273 22.103,320.404 22.391 C 320.534 22.680,320.878 23.479,321.167 24.167 C 321.456 24.854,321.799 25.653,321.929 25.942 C 322.060 26.231,322.167 26.519,322.167 26.583 C 322.167 26.647,322.274 26.936,322.406 27.225 C 322.538 27.514,323.215 29.175,323.910 30.917 C 324.606 32.658,325.245 34.233,325.331 34.417 C 325.417 34.600,325.831 35.650,326.251 36.750 C 327.868 40.981,328.687 43.096,328.833 43.417 C 328.971 43.719,330.967 48.846,331.218 49.542 C 331.329 49.850,347.000 50.015,347.000 49.708 C 347.000 49.547,346.389 47.906,346.075 47.225 C 345.942 46.936,345.833 46.636,345.832 46.558 C 345.832 46.480,345.727 46.218,345.601 45.974 C 345.474 45.731,345.278 45.255,345.167 44.917 C 345.055 44.578,344.860 44.102,344.733 43.859 C 344.606 43.616,344.502 43.353,344.501 43.275 C 344.500 43.197,344.393 42.897,344.262 42.609 C 344.130 42.320,343.458 40.658,342.767 38.917 C 341.403 35.476,340.243 32.611,340.002 32.083 C 339.918 31.900,339.425 30.700,338.906 29.417 C 337.407 25.709,336.824 24.286,336.585 23.750 C 336.358 23.240,335.930 22.230,334.997 20.000 C 334.710 19.313,334.368 18.506,334.237 18.208 C 334.107 17.910,333.893 17.423,333.763 17.125 C 333.632 16.827,333.285 16.021,332.991 15.333 C 332.696 14.646,332.250 13.633,332.000 13.083 C 331.749 12.533,331.255 11.446,330.903 10.667 C 328.358 5.034,325.873 2.072,323.000 1.246 C 322.771 1.180,322.508 1.067,322.417 0.995 C 322.178 0.807,319.968 0.339,318.500 0.166 C 317.026 -0.009,303.572 -0.007,302.000 0.168 M344.000 5.250 L 344.000 10.500 354.417 10.500 L 364.833 10.500 364.833 30.167 L 364.833 49.833 372.000 49.833 L 379.167 49.833 379.167 30.167 L 379.167 10.500 389.583 10.500 L 400.000 10.500 400.000 5.250 L 400.000 0.000 372.000 0.000 L 344.000 0.000 344.000 5.250 M182.500 9.843 C 187.303 10.923,188.579 16.180,184.692 18.871 C 183.186 19.913,183.518 19.889,169.292 19.957 L 156.333 20.019 156.333 14.843 L 156.333 9.667 169.042 9.671 C 176.993 9.673,182.031 9.738,182.500 9.843 M250.812 10.300 C 257.312 12.122,258.892 14.979,258.896 24.917 C 258.900 34.755,257.203 37.832,250.833 39.537 C 248.626 40.128,233.194 40.126,231.000 39.535 C 227.632 38.626,225.361 36.951,224.188 34.509 C 222.525 31.046,222.524 18.773,224.187 15.331 C 224.936 13.781,227.315 11.333,228.074 11.333 C 228.127 11.333,228.488 11.187,228.877 11.008 C 229.547 10.699,231.836 10.095,232.917 9.943 C 234.811 9.675,249.639 9.971,250.812 10.300 M185.005 29.903 C 190.045 30.972,191.308 36.590,187.112 39.278 C 185.535 40.289,184.934 40.326,169.958 40.330 L 156.333 40.333 156.333 35.000 L 156.333 29.667 170.125 29.670 C 181.230 29.672,184.129 29.717,185.005 29.903 " stroke="none" fill="#ffffff" fill-rule="evenodd"></path></g></svg>